PathFileType	4	(X/Y/Z)	RBDS013\RBDS013runT35.trc
DataRate	CameraRate	NumFrames	NumMarkers	Units	OrigDataRate	OrigDataStartFrame	OrigNumFrames
150.000000	150.000000	5	33	mm	150.000000	562	4500
Frame#	Time	L.ASIS			L.Heel.Bottom			L.Heel.Lateral			L.Heel.Top			L.Iliac.Crest			L.MT1			L.MT5			L.PSIS			L.Shank.Bottom.Lateral			L.Shank.Bottom.Medial			L.Shank.Top.Lateral			L.Shank.Top.Medial			L.Thigh.Bottom.Lateral			L.Thigh.Bottom.Medial			L.Thigh.Top.Lateral			L.Thigh.Top.Medial			R.ASIS			R.ASY			R.Heel.Bottom			R.Heel.Lateral			R.Heel.Top			R.Iliac.Crest			R.MT1			R.MT5			R.PSIS			R.Shank.Bottom.Lateral			R.Shank.Bottom.Medial			R.Shank.Top.Lateral			R.Shank.Top.Medial			R.Thigh.Bottom.Lateral			R.Thigh.Bottom.Medial			R.Thigh.Top.Lateral			R.Thigh.Top.Medial			
		X1	Y1	Z1	X2	Y2	Z2	X3	Y3	Z3	X4	Y4	Z4	X5	Y5	Z5	X6	Y6	Z6	X7	Y7	Z7	X8	Y8	Z8	X9	Y9	Z9	X10	Y10	Z10	X11	Y11	Z11	X12	Y12	Z12	X13	Y13	Z13	X14	Y14	Z14	X15	Y15	Z15	X16	Y16	Z16	X17	Y17	Z17	X18	Y18	Z18	X19	Y19	Z19	X20	Y20	Z20	X21	Y21	Z21	X22	Y22	Z22	X23	Y23	Z23	X24	Y24	Z24	X25	Y25	Z25	X26	Y26	Z26	X27	Y27	Z27	X28	Y28	Z28	X29	Y29	Z29	X30	Y30	Z30	X31	Y31	Z31	X32	Y32	Z32	X33	Y33	Z33	

563	3.746666666666667	2326.745431460155	872.0135788644984	926.4901146629607	2224.301263368173	31.66728870387178	1034.759084670466	2247.32550844774	54.28336927761976	992.185532289801	2236.17515248888	78.16648599072496	1034.547414834954	2270.534897913548	935.3530606013211	893.4178909308964	2439.170602817064	43.72567770560659	1060.142993452851	2400.815730608748	33.84396792399553	950.9573009077411	2171.208040985708	912.4658794883306	1005.068721511456	2322.057804700695	150.618975621054	968.4611173495995	2278.631069325078	166.2680084430307	999.3607056885036	2333.794150387011	228.0667714499371	948.2733402086318	2293.109914840466	244.1215081128772	979.7192303499289	2396.52098800101	548.8053148265139	901.3390570237408	2333.486795438454	523.7000959883096	928.0401197640714	2345.465467080434	643.4180342934311	876.6935357281379	2285.376244832517	619.9365936764578	901.3930369037525	2349.561943283416	860.2507568819199	1155.726618705772	1843.383092535935	493.2842989242287	1098.991144127737	1919.226149845357	677.9155547215872	1077.353905699768	1915.765353249519	649.713669145282	1119.805632290269	1951.868932073075	638.6696018674368	1083.682382408603	2315.279450601809	924.4798829862541	1193.134697778167	1803.139122361639	503.2789380172861	1049.728710441318	1804.372968151009	539.6645222946662	1153.259245861929	2179.621386783459	908.4259972179307	1105.863889378993	1975.610521655216	565.670278267149	1148.195789994854	1996.806420135767	597.0092876766895	1113.165003813088	2053.161578814758	538.78825435648	1169.30115891188	2071.8544538523	573.5274885869425	1132.600930162653	2261.835159343762	540.5291068041663	1213.249900832602	2203.371403595901	535.9701438312591	1169.948619518751	2248.619547955168	649.2606742515474	1216.328414848196	2193.214277109272	646.3774653464934	1174.761681306648	
564	3.753333333333333	2323.864894242746	868.3220371555177	925.7935413348166	2201.108649254422	32.39430101807135	1035.162019097258	2224.209330387084	55.25407326774075	992.7340863705683	2213.189152866666	78.84679133780514	1035.279345703153	2267.58037757409	929.4426447268556	893.4400922278465	2415.913938133605	43.92921410396717	1060.695682682152	2377.376433804189	34.68093452388084	951.1909419727225	2168.818693108671	909.112030311062	1006.576035719106	2303.150865505949	150.4105826014359	969.2754103143715	2259.984700264905	167.9561833634856	999.7215780917539	2318.383950270256	227.3232030328801	949.0008802331322	2277.998934356779	245.1094004248821	980.0208838935498	2390.298203802778	544.3897337477405	901.5167781169038	2327.183769697253	520.2461225309438	928.736527369314	2340.362802664682	639.5481706942314	876.8030909300603	2280.166411930104	616.9449490009696	901.9714017276253	2347.34288675483	855.608905116044	1155.631692062548	1861.108865009023	490.4658198668922	1098.250689081151	1934.771906325631	675.8844063407976	1080.945437394518	1931.989032547035	646.6112890147365	1122.897718551048	1967.89061606885	636.9369608116994	1086.176381821373	2312.270053433436	919.4133236040991	1193.567113450812	1820.437158022305	500.956844980171	1049.465386970607	1821.925245854251	534.7508365522747	1153.872113007935	2177.607882934945	904.463371493556	1106.514648859971	1992.914135949387	562.2775069339158	1149.592322744836	2014.489764270954	593.7925935529563	1114.895505215253	2070.268058008015	534.1971349343845	1170.34842383983	2089.336674196121	569.0938451883219	1133.974360403446	2271.781072287617	536.5211631566227	1214.238833174308	2213.332854110136	529.1045492087194	1171.522015949074	2254.049662743791	644.5652730769574	1216.780532625598	2198.453448330292	639.0176748695967	1175.75808223808	
565	3.76	2320.85685289379	865.1973860219989	925.0478439078387	2177.872002602847	33.08496443470217	1035.358940618095	2201.00571369941	56.08117365105281	992.9930699388221	2190.050191599725	79.49538735897465	1035.620972886857	2264.185343774112	924.536550449915	893.4951181450797	2392.48957851377	44.52442848708505	1060.975022336835	2353.90008854948	35.47210533524241	951.2534992516393	2166.369731450734	906.6546759669596	1007.992451055042	2283.39469469676	150.3217279484395	969.6739809073541	2240.688068918166	169.576043960939	999.8642469826748	2301.789900637395	226.5809614916967	949.4224165542398	2261.878708206789	245.9265975200757	980.1910071832448	2382.82290791169	540.0655400404619	901.675380853375	2319.507538243156	517.1476780322349	929.3285558305768	2334.470116207876	636.0055897509377	876.9920723559952	2274.082578348535	614.544351390132	902.5806308949335	2344.909194102147	851.9011427197859	1155.73326478155	1879.063991830997	486.1749310481915	1097.566955257142	1948.755837841321	672.5967255226744	1084.753657453071	1946.949139503379	642.2444519565314	1126.190495655663	1982.670261947662	634.2860501471672	1088.877978865788	2308.446315943427	915.4995736525002	1194.05316377911	1837.797487704893	496.5535221279265	1049.190434941807	1839.28364779358	527.5915368949251	1154.428002112954	2175.499184101641	901.5250321971092	1107.054769321899	2009.834620853156	558.2722237303146	1151.065449781887	2031.460362458144	590.0961578288398	1116.602018859376	2087.286723287655	529.6822845702085	1171.247322405587	2106.32826224431	564.8697039145428	1135.198598594742	2282.253410973926	533.8655923262511	1215.182465390553	2224.002319385891	523.5293072744812	1172.924548511551	2259.786139757809	640.9541580751187	1217.21498424985	2204.133282380671	632.6220627455759	1176.730131937738	
566	3.766666666666667	2317.825024959509	862.676580925505	924.2999843412202	2154.556364062427	33.74614510291502	1035.373973160129	2177.702042240127	56.77469586500666	992.9996658737194	2166.781212131286	80.12307933190002	1035.627571056023	2260.488827864491	920.7955545004162	893.5689593475872	2368.928656777821	45.26180336080655	1061.052461229083	2330.373269411426	36.10105814307826	951.1863336022658	2163.952764399931	905.136532378585	1009.230360637718	2262.880611677904	150.2849518156319	969.721068409494	2220.772452517283	171.0598206707258	999.8041201758259	2284.100150269053	225.8003904019147	949.5620319735383	2244.788202359234	246.5405465045562	980.2141401111428	2374.146745671277	535.9016410602735	901.79604640377	2310.508193887259	514.4491539650294	929.7578845350748	2327.829314847117	632.8384009712731	877.2445398307548	2267.165283457654	612.7611431896864	903.1706291530159	2342.352487633287	849.2186968099597	1156.020157389596	1897.068412120792	480.4510473280436	1096.967272060851	1961.054543214282	668.0301056000264	1088.667766944577	1960.507584190648	636.6379047159323	1129.577532536664	1996.055918934685	630.6999124735755	1091.718760640832	2303.998674676292	912.8170187440667	1194.571032221064	1855.079788937138	490.1264821600305	1048.912652894852	1856.334842883179	518.3310896162127	1154.9164545361	2173.354442463493	899.6602979010643	1107.478430611196	2026.161523431659	553.7417172969666	1152.576151377684	2047.488816537792	586.0085794919773	1118.238478285818	2104.010347287029	525.3954134376816	1171.98329460318	2122.607123104125	561.0050936817223	1136.24800495775	2293.159371803973	532.6604768652661	1216.049740881808	2235.297730723731	519.3984990193439	1174.102217733182	2265.784737863534	638.5164680199229	1217.642219644727	2210.232638560562	627.3239742462029	1177.666818538506	
567	3.773333333333333	2314.8738417462	860.7881197126843	923.5978211876976	2131.128831772169	34.43373548137878	1035.242673072806	2154.287593630656	57.39292118761681	992.8037604893223	2143.403462979457	80.7854152817557	1035.36770561102	2256.677327035091	918.303907204595	893.6469577112655	2345.24256055856	45.95960747405598	1061.000366580789	2306.770298810236	36.51058630247452	951.0414560618586	2161.656284924491	904.5627390002338	1010.21592726314	2241.721704857235	150.2993985867842	969.4999249047111	2200.28770248738	172.4157685066783	999.5716937664358	2265.438727354971	225.0100122206114	949.4613867726351	2226.800051257007	246.9934895445651	980.0894076461817	2364.356608170696	531.9915529128622	901.8670114005978	2300.283823990526	512.2154358559688	929.9942213396508	2320.500050175947	630.1046577280237	877.5449066932448	2259.482666267252	611.626098111947	903.7084353800967	2339.77643639773	847.6150409305359	1156.458260711483	1914.977508901736	473.3328145149151	1096.477614132225	1971.617683135829	662.1412858918054	1092.553995945395	1972.593644642666	629.8059342870415	1132.935072870961	2007.958295053295	626.140418833739	1094.603790261878	2299.186907554769	911.3816132840482	1195.090948938665	1872.199794348496	481.747951540101	1048.65292654378	1873.034897576999	507.1482789514362	1155.34240363333	2171.240859835681	898.8732850984031	1107.777365618103	2041.712024384818	548.7502431523029	1154.07224540237	2062.380676752107	581.5858076026783	1119.757263928938	2120.228993459003	521.4480580650373	1172.551546586959	2137.963554379989	557.5963490079414	1137.103908762095	2304.378377514554	532.9665151954838	1216.809820290606	2247.094741834281	516.8249965675335	1175.019189822872	2271.982740181285	637.315848119901	1218.070877003147	2216.704871720548	623.2353530695857	1178.556126481758	
